# xmcd CD database file
#
# Track frame offsets:
#	150
#	24000
#	39738
#	62238
#	84344
#	107125
#	126869
#	157157
#	183126
#	208530
#	227381
#
# Disc length: 3422 seconds
#
# Revision: 1
# Processed by: cddbd v1.5.2PL0 Copyright (c) Steve Scherf et al.
# Submitted via: CDex 1.51
#
DISCID=850d5c0b
DTITLE=Bix Beiderbecke Youth Jazz Band - Bix 100 1903-2003
DYEAR=2003
DGENRE=Jazz
TTITLE0=Moten Swing
TTITLE1=Just a Closer Walk
TTITLE2=Davenport Blues
TTITLE3=Struttin With Some B-Que
TTITLE4=Sentimental Journey
TTITLE5=The Preacher
TTITLE6=In a Mellow Tone
TTITLE7=Georgia On My Mind
TTITLE8=St. Louis Blues
TTITLE9=Royal Garden Blues
TTITLE10=Count Bubba
EXTD=YEAR: 2003
EXTT0=
EXTT1=
EXTT2=
EXTT3=
EXTT4=
EXTT5=
EXTT6=
EXTT7=
EXTT8=
EXTT9=
EXTT10=
PLAYORDER=
